ply
format ascii 1.0
comment Created in Blender version 4.0.2
element vertex 290
property float x
property float y
property float z
element face 576
property list uchar uint vertex_indices
end_header
0.66666675 0.66666675 0.95366216
0.5000001 0.50000006 -0.50000006
0.76000005 -0.94363296 0.9666367
0.50000006 -0.50000006 -0.5
-0.66666675 0.66666675 0.95366216
-0.50000006 0.50000006 -0.50000006
-0.76000005 -0.943633 0.9666367
-0.50000006 -0.50000006 -0.50000006
0.76000005 -0.94363296 2.6983404
-0.76000005 -0.94363296 2.6983407
0.5 0.50000006 2.2914793
-0.5 0.5 2.2914793
0.5000001 -2.1477058 1.4304931
-0.5 -2.1477056 1.4304931
0.66666675 -2.2752283 2.6891503
-0.6666667 -2.2752285 2.68915
0.5 -1.3825685 3.8657506
-0.5000001 -1.3825685 3.8657506
0.50000006 -2.1477056 3.8657506
-0.5 -2.1477056 3.8657503
-0.5729328 0.29664996 -0.5729328
-0.6095679 1.5832484e-08 -0.60956794
-0.5729328 -0.29664996 -0.5729328
0.29665 0.5729328 -0.57293284
5.5879354e-09 0.6095679 -0.6095679
-0.29664996 0.5729327 -0.5729328
0.663098 0.6630981 0.48836023
0.6381174 0.6381173 0.05747936
0.5765014 0.5765014 -0.28946504
-0.5777515 -0.5801159 -0.29003868
-0.64811736 -0.66703326 0.052890446
-0.69760156 -0.76352286 0.47553283
0.6976015 -0.76352286 0.47553283
0.6481173 -0.66703326 0.05289045
0.5777514 -0.5801159 -0.29003865
-0.6630981 0.663098 0.48836023
-0.6381173 0.6381174 0.05747936
-0.5765014 0.5765014 -0.28946507
0.39740282 -1.138443 0.7792603
-3.7252903e-09 -1.1902986 0.7292376
-0.39740285 -1.1384429 0.7792603
0.8562848 0.3609689 0.9538359
0.93361115 -0.028915908 0.9550524
0.90863556 -0.4645742 0.95845866
-0.29665 -0.57293284 -0.5729328
-9.313226e-10 -0.6095679 -0.6095679
0.29664996 -0.5729328 -0.5729328
-0.90863544 -0.4645742 0.95845854
-0.9336111 -0.02891589 0.95505226
-0.8562848 0.36096886 0.95383596
-0.36458337 0.85416675 0.95366216
0 0.9166667 0.95366216
0.36458337 0.85416675 0.95366216
0.5729328 -0.29664996 -0.57293284
0.6095679 -1.8626451e-09 -0.6095679
0.57293284 0.29664996 -0.5729328
0.39740282 -0.77070594 2.8720431
-3.7252903e-09 -0.72449857 2.9183242
-0.39740288 -0.77070606 2.872043
0.57775146 0.29033482 2.3607788
0.6481173 -0.050520845 2.4378576
0.6976015 -0.4672748 2.5273075
-0.69760156 -0.46727479 2.5273075
-0.64811736 -0.050520837 2.4378576
-0.5777515 0.29033482 2.3607788
-0.29665 0.5729328 2.3542738
2.7939677e-09 0.60956794 2.385816
0.29664996 0.5729327 2.3542736
-0.6630981 0.6630981 1.4041351
-0.6381173 0.63811725 1.8007183
-0.5765015 0.5765015 2.1088643
0.5765015 0.5765014 2.1088643
0.63811725 0.6381173 1.8007183
0.6630981 0.6630981 1.4041351
0.9107534 -0.9301095 1.4350281
0.9505555 -0.92640966 1.8551154
0.9107536 -0.93010956 2.2657502
-0.91075367 -0.93010956 2.2657502
-0.9505555 -0.9264097 1.8551153
-0.9107534 -0.9301095 1.4350282
0.29665 -2.203509 1.3676993
1.8626451e-09 -2.2315402 1.3361568
-0.29664996 -2.2035093 1.3676991
0.36458337 -2.4186916 2.68915
0 -2.4665127 2.6891503
-0.36458337 -2.4186919 2.6891503
0.5765015 -2.2062397 1.6118716
0.6381173 -2.253384 1.9113594
0.66309804 -2.272498 2.2844422
-0.66309804 -2.2724981 2.284442
-0.6381174 -2.2533844 1.9113594
-0.5765014 -2.20624 1.6118716
-0.90863544 -1.373957 2.6925476
-0.9336113 -1.7327634 2.690135
-0.8562848 -2.0400465 2.6892734
0.8562848 -2.0400465 2.6892734
0.9336113 -1.7327635 2.690135
0.90863556 -1.3739568 2.6925476
-0.69760156 -1.3718905 1.1742048
-0.6481173 -1.716233 1.2782441
-0.5777514 -1.986002 1.3604602
0.69760156 -1.3718905 1.174205
0.64811736 -1.7162329 1.2782443
0.5777515 -1.986002 1.36046
0.29664996 -1.3267652 3.921363
-1.8626451e-09 -1.2987342 3.949298
-0.29665 -1.3267651 3.9213629
0.29664996 -2.2035093 3.9213629
1.3038516e-08 -2.2315402 3.9492981
-0.29665 -2.203509 3.921363
-0.57293284 -1.5381594 3.9213629
-0.60956794 -1.7651372 3.9492981
-0.5729328 -1.992115 3.921363
0.5729327 -1.9921149 3.9213629
0.60956794 -1.7651371 3.949298
0.5729328 -1.5381593 3.9213629
0.69760156 -1.1452202 3.1042726
0.6481173 -1.2445164 3.4391065
0.5777514 -1.3199879 3.7050192
0.5765014 -2.20624 3.7041483
0.6381173 -2.2533844 3.4321427
0.6630981 -2.2724981 3.083354
-0.69760156 -1.1452203 3.1042726
-0.64811736 -1.2445164 3.4391065
-0.5777515 -1.3199878 3.705019
-0.5765015 -2.2062397 3.7041483
-0.63811725 -2.2533844 3.4321427
-0.66309804 -2.2724981 3.0833542
0.36261818 0.8496456 1.4047163
0 0.9118442 1.4052975
-0.3626182 0.84964556 1.4047163
0.34886193 0.81799775 1.8053685
-1.8626451e-09 0.87808645 1.8100189
-0.34886193 0.8179977 1.8053684
0.3181223 0.7335111 2.126241
-7.450581e-09 0.7866514 2.1414447
-0.3181223 0.7335111 2.126241
0.31898168 -0.7376333 -0.31166574
0.3557369 -0.85097575 0.0359309
0.38371366 -0.96316135 0.4287411
-1.21071935e-08 -0.7907832 -0.3302085
-1.8626451e-08 -0.9111416 0.023455672
-6.519258e-09 -1.0245539 0.40380642
-0.31898168 -0.7376333 -0.3116658
-0.35573694 -0.85097575 0.0359309
-0.3837137 -0.9631613 0.42874116
-0.7344096 -0.32032582 -0.30961588
-0.8251853 -0.36649033 0.052329898
-0.8734842 -0.41817856 0.48915434
-0.78696376 -0.0007375553 -0.32726246
-0.88058645 -0.005900599 0.04702443
-0.91989976 -0.017628424 0.48800904
-0.7335501 0.3180301 -0.30964193
-0.81831026 0.34812433 0.05212158
-0.85065264 0.36041462 0.48780996
-0.31615713 0.31615713 -0.7289899
-7.450581e-09 0.3331405 -0.7818288
0.31615713 0.3161571 -0.72898996
-0.3331405 -1.3969839e-08 -0.7818288
0 -5.5879354e-09 -0.83950627
0.3331405 5.5879354e-09 -0.7818288
-0.3161571 -0.31615713 -0.72898996
1.4901161e-08 -0.3331405 -0.7818288
0.31615713 -0.31615713 -0.7289899
0.73355013 0.31803012 -0.30964193
0.8183103 0.34812436 0.05212158
0.8506526 0.36041462 0.48780996
0.7869638 -0.0007375963 -0.32726243
0.8805865 -0.005900615 0.047024433
0.9198997 -0.017628446 0.48800904
0.7344095 -0.32032585 -0.30961588
0.82518524 -0.36649033 0.052329913
0.87348413 -0.41817853 0.48915428
-0.3181223 0.73351103 -0.30964735
-0.34886193 0.8179978 0.05207814
-0.36261818 0.8496456 0.48768505
2.6077032e-08 0.78665125 -0.32730585
7.450581e-09 0.8780865 0.046676897
1.0244548e-08 0.9118442 0.48700988
0.3181223 0.73351103 -0.30964732
0.3488619 0.81799775 0.05207814
0.3626182 0.8496457 0.48768502
0.31898168 0.31183589 2.4965103
1.1175871e-08 0.330315 2.5423152
-0.31898168 0.31183589 2.4965103
0.3557369 -0.034569718 2.5971193
3.7252903e-09 -0.022603689 2.6492705
-0.3557369 -0.03456971 2.5971193
0.38371366 -0.4243727 2.7022781
-9.313226e-10 -0.40119052 2.7562113
-0.38371366 -0.42437276 2.702278
0.85065264 -2.0401971 3.0839577
0.9198998 -1.7459918 3.0850916
0.87348425 -1.4269862 3.087623
0.81831026 -2.0312696 3.436292
0.8805865 -1.7587798 3.440626
0.8251853 -1.4790648 3.437716
0.7335502 -2.0084448 3.719542
0.7869639 -1.7643425 3.7330341
0.7344095 -1.5193367 3.71972
-0.8531632 0.35841158 1.4050003
-0.9399846 -0.03365316 1.4075706
-0.9467446 -0.47623035 1.4133637
-0.82277024 0.34405488 1.8066859
-0.91626555 -0.03845627 1.8205584
-0.9477276 -0.4762321 1.8371992
-0.73888534 0.31205896 2.1300852
-0.82964516 -0.048506554 2.172199
-0.8769626 -0.47808704 2.220536
0.9467446 -0.47623035 1.4133637
0.9399847 -0.033653155 1.4075707
0.8531632 0.35841155 1.4050003
0.9477276 -0.47623208 1.8371994
0.91626555 -0.03845627 1.8205584
0.8227702 0.34405488 1.806686
0.8769627 -0.478087 2.2205362
0.82964516 -0.04850655 2.172199
0.7388852 0.312059 2.1300852
-0.31812233 -2.3263738 1.5944947
-7.450581e-09 -2.3670332 1.5792911
0.31812233 -2.3263736 1.5944949
-0.34886193 -2.3910177 1.906709
0 -2.4369934 1.9020587
0.34886193 -2.3910174 1.9067091
-0.3626182 -2.4152322 2.2838607
0 -2.4628227 2.2832794
0.36261818 -2.4152324 2.2838604
-0.9467447 -1.3527125 2.2804692
-0.9477276 -1.3484154 1.873551
-0.8769628 -1.3512919 1.4900206
-0.9399846 -1.7255834 2.282581
-0.9162656 -1.7205119 1.8910576
-0.8296451 -1.7142185 1.5453706
-0.8531631 -2.0376453 2.2837734
-0.8227702 -2.0264862 1.905334
-0.7388852 -2.0021796 1.5902549
-0.38371366 -1.4215398 0.99217355
0 -1.4468571 0.9357797
0.38371366 -1.4215399 0.99217355
-0.3557369 -1.7327992 1.1169456
3.7252903e-09 -1.7441573 1.0639945
0.35573694 -1.732799 1.1169456
-0.31898165 -2.0029986 1.224474
1.4901161e-08 -2.0174127 1.1785691
0.31898165 -2.0029984 1.224474
0.8769627 -1.3512918 1.4900209
0.9477277 -1.3484154 1.8735509
0.9467446 -1.3527125 2.2804694
0.8296453 -1.7142185 1.5453707
0.91626555 -1.7205122 1.8910576
0.9399846 -1.7255833 2.2825813
0.7388853 -2.0021794 1.5902549
0.8227702 -2.0264864 1.905334
0.8531632 -2.0376456 2.2837732
0.31615713 -1.5232337 4.0403595
7.450581e-09 -1.5102392 4.0806503
-0.31615713 -1.5232338 4.0403595
0.3331405 -1.7651372 4.0806503
0 -1.7651372 4.12463
-0.3331405 -1.7651371 4.0806503
0.3161571 -2.0070407 4.0403595
-1.1175871e-08 -2.0200353 4.0806503
-0.31615713 -2.0070405 4.0403595
0.38371366 -0.9801436 3.1482499
0 -0.9288742 3.171001
-0.38371366 -0.98014355 3.1482496
0.3557369 -1.1002197 3.4541898
-3.7252903e-09 -1.0527884 3.4647882
-0.35573694 -1.1002197 3.4541895
0.31898165 -1.1990211 3.7217793
-1.4901161e-08 -1.1581798 3.7360544
-0.31898165 -1.199021 3.721779
-0.3626182 -2.4152322 3.083869
-2.3283064e-10 -2.4628224 3.0843837
0.3626182 -2.4152324 3.0838692
-0.34886193 -2.3910174 3.4362612
1.8626451e-09 -2.4369934 3.4403799
0.34886193 -2.3910174 3.4362612
-0.3181223 -2.3263736 3.7195382
1.1175871e-08 -2.3670328 3.7330031
0.3181223 -2.3263736 3.719538
-0.87348425 -1.4269863 3.087623
-0.9198997 -1.7459918 3.0850916
-0.8506526 -2.0401964 3.0839572
-0.82518536 -1.479065 3.4377162
-0.8805865 -1.7587798 3.440626
-0.81831026 -2.0312696 3.4362917
-0.7344096 -1.5193368 3.71972
-0.7869639 -1.7643423 3.7330341
-0.7335501 -2.008445 3.7195418
3 129 131 128
3 129 133 132
3 132 134 131
3 132 136 135
3 52 73 0
3 51 128 52
3 51 130 129
3 50 68 130
3 130 69 133
3 133 70 136
3 136 11 65
3 135 65 66
3 135 67 134
3 134 10 71
3 131 71 72
3 128 72 73
3 137 141 140
3 138 142 141
3 141 143 140
3 142 144 141
3 3 137 46
3 34 138 137
3 33 139 138
3 32 38 139
3 139 39 142
3 39 145 142
3 40 31 145
3 145 30 144
3 144 29 143
3 143 7 44
3 140 44 45
3 46 140 45
3 146 150 149
3 147 151 150
3 150 152 149
3 150 154 153
3 7 146 22
3 29 147 146
3 30 148 147
3 31 47 148
3 148 48 151
3 151 49 154
3 154 4 35
3 154 36 153
3 153 37 152
3 152 5 20
3 149 20 21
3 22 149 21
3 155 159 158
3 157 159 156
3 159 161 158
3 159 163 162
3 5 155 20
3 25 156 155
3 23 156 24
3 1 157 23
3 55 160 157
3 160 53 163
3 163 3 46
3 162 46 45
3 162 44 161
3 161 7 22
3 158 22 21
3 20 158 21
3 164 168 167
3 166 168 165
3 168 170 167
3 169 171 168
3 1 164 55
3 28 165 164
3 27 166 165
3 0 166 26
3 41 169 166
3 42 172 169
3 43 32 172
3 172 33 171
3 171 34 170
3 170 3 53
3 167 53 54
3 55 167 54
3 173 177 176
3 174 178 177
3 177 179 176
3 178 180 177
3 5 173 25
3 37 174 173
3 36 175 174
3 35 50 175
3 175 51 178
3 51 181 178
3 52 26 181
3 181 27 180
3 180 28 179
3 179 1 23
3 176 23 24
3 25 176 24
3 182 186 185
3 184 186 183
3 185 189 188
3 187 189 186
3 10 182 59
3 67 183 182
3 65 183 66
3 11 184 65
3 64 187 184
3 63 190 187
3 62 58 190
3 190 57 189
3 188 57 56
3 61 56 8
3 60 188 61
3 59 185 60
3 191 195 194
3 192 196 195
3 194 198 197
3 195 199 198
3 14 191 121
3 95 192 191
3 96 193 192
3 97 116 193
3 193 117 196
3 196 118 199
3 199 16 115
3 199 114 198
3 197 114 113
3 197 18 119
3 120 197 119
3 121 194 120
3 201 203 200
3 202 204 201
3 204 206 203
3 205 207 204
3 49 68 4
3 48 200 49
3 47 201 48
3 47 79 202
3 79 205 202
3 78 208 205
3 77 62 208
3 208 63 207
3 207 64 206
3 206 11 70
3 203 70 69
3 200 69 68
3 209 213 212
3 210 214 213
3 212 216 215
3 213 217 216
3 43 74 2
3 43 210 209
3 42 211 210
3 41 73 211
3 211 72 214
3 214 71 217
3 217 10 59
3 216 59 60
3 215 60 61
3 76 61 8
3 75 215 76
3 74 212 75
3 218 222 221
3 220 222 219
3 221 225 224
3 223 225 222
3 13 218 91
3 82 219 218
3 80 219 81
3 12 220 80
3 86 223 220
3 87 226 223
3 88 83 226
3 226 84 225
3 224 84 85
3 89 85 15
3 90 224 89
3 91 221 90
3 227 231 230
3 228 232 231
3 230 234 233
3 231 235 234
3 9 227 92
3 77 228 227
3 78 229 228
3 79 98 229
3 229 99 232
3 232 100 235
3 235 13 91
3 235 90 234
3 234 89 233
3 94 89 15
3 93 233 94
3 92 230 93
3 237 239 236
3 237 241 240
3 240 242 239
3 240 244 243
3 40 98 6
3 39 236 40
3 39 238 237
3 38 101 238
3 238 102 241
3 241 103 244
3 244 12 80
3 243 80 81
3 243 82 242
3 242 13 100
3 239 100 99
3 236 99 98
3 246 248 245
3 247 249 246
3 249 251 248
3 250 252 249
3 74 101 2
3 75 245 74
3 76 246 75
3 8 247 76
3 97 250 247
3 96 253 250
3 95 88 253
3 252 88 87
3 251 87 86
3 251 12 103
3 248 103 102
3 245 102 101
3 254 258 257
3 256 258 255
3 258 260 257
3 258 262 261
3 16 254 115
3 104 255 254
3 106 255 105
3 17 256 106
3 110 259 256
3 259 112 262
3 262 19 109
3 261 109 108
3 261 107 260
3 260 18 113
3 257 113 114
3 115 257 114
3 264 266 263
3 264 268 267
3 267 269 266
3 267 271 270
3 56 116 8
3 57 263 56
3 57 265 264
3 58 122 265
3 265 123 268
3 268 124 271
3 271 17 106
3 270 106 105
3 270 104 269
3 269 16 118
3 266 118 117
3 263 117 116
3 273 275 272
3 273 277 276
3 276 278 275
3 276 280 279
3 85 127 15
3 84 272 85
3 84 274 273
3 83 121 274
3 274 120 277
3 277 119 280
3 280 18 107
3 279 107 108
3 279 109 278
3 278 19 125
3 275 125 126
3 272 126 127
3 282 284 281
3 283 285 282
3 285 287 284
3 286 288 285
3 92 122 9
3 93 281 92
3 94 282 93
3 15 283 94
3 127 286 283
3 126 289 286
3 289 19 112
3 289 111 288
3 287 111 110
3 287 17 124
3 284 124 123
3 281 123 122
3 129 132 131
3 129 130 133
3 132 135 134
3 132 133 136
3 52 128 73
3 51 129 128
3 51 50 130
3 50 4 68
3 130 68 69
3 133 69 70
3 136 70 11
3 135 136 65
3 135 66 67
3 134 67 10
3 131 134 71
3 128 131 72
3 137 138 141
3 138 139 142
3 141 144 143
3 142 145 144
3 3 34 137
3 34 33 138
3 33 32 139
3 32 2 38
3 139 38 39
3 39 40 145
3 40 6 31
3 145 31 30
3 144 30 29
3 143 29 7
3 140 143 44
3 46 137 140
3 146 147 150
3 147 148 151
3 150 153 152
3 150 151 154
3 7 29 146
3 29 30 147
3 30 31 148
3 31 6 47
3 148 47 48
3 151 48 49
3 154 49 4
3 154 35 36
3 153 36 37
3 152 37 5
3 149 152 20
3 22 146 149
3 155 156 159
3 157 160 159
3 159 162 161
3 159 160 163
3 5 25 155
3 25 24 156
3 23 157 156
3 1 55 157
3 55 54 160
3 160 54 53
3 163 53 3
3 162 163 46
3 162 45 44
3 161 44 7
3 158 161 22
3 20 155 158
3 164 165 168
3 166 169 168
3 168 171 170
3 169 172 171
3 1 28 164
3 28 27 165
3 27 26 166
3 0 41 166
3 41 42 169
3 42 43 172
3 43 2 32
3 172 32 33
3 171 33 34
3 170 34 3
3 167 170 53
3 55 164 167
3 173 174 177
3 174 175 178
3 177 180 179
3 178 181 180
3 5 37 173
3 37 36 174
3 36 35 175
3 35 4 50
3 175 50 51
3 51 52 181
3 52 0 26
3 181 26 27
3 180 27 28
3 179 28 1
3 176 179 23
3 25 173 176
3 182 183 186
3 184 187 186
3 185 186 189
3 187 190 189
3 10 67 182
3 67 66 183
3 65 184 183
3 11 64 184
3 64 63 187
3 63 62 190
3 62 9 58
3 190 58 57
3 188 189 57
3 61 188 56
3 60 185 188
3 59 182 185
3 191 192 195
3 192 193 196
3 194 195 198
3 195 196 199
3 14 95 191
3 95 96 192
3 96 97 193
3 97 8 116
3 193 116 117
3 196 117 118
3 199 118 16
3 199 115 114
3 197 198 114
3 197 113 18
3 120 194 197
3 121 191 194
3 201 204 203
3 202 205 204
3 204 207 206
3 205 208 207
3 49 200 68
3 48 201 200
3 47 202 201
3 47 6 79
3 79 78 205
3 78 77 208
3 77 9 62
3 208 62 63
3 207 63 64
3 206 64 11
3 203 206 70
3 200 203 69
3 209 210 213
3 210 211 214
3 212 213 216
3 213 214 217
3 43 209 74
3 43 42 210
3 42 41 211
3 41 0 73
3 211 73 72
3 214 72 71
3 217 71 10
3 216 217 59
3 215 216 60
3 76 215 61
3 75 212 215
3 74 209 212
3 218 219 222
3 220 223 222
3 221 222 225
3 223 226 225
3 13 82 218
3 82 81 219
3 80 220 219
3 12 86 220
3 86 87 223
3 87 88 226
3 88 14 83
3 226 83 84
3 224 225 84
3 89 224 85
3 90 221 224
3 91 218 221
3 227 228 231
3 228 229 232
3 230 231 234
3 231 232 235
3 9 77 227
3 77 78 228
3 78 79 229
3 79 6 98
3 229 98 99
3 232 99 100
3 235 100 13
3 235 91 90
3 234 90 89
3 94 233 89
3 93 230 233
3 92 227 230
3 237 240 239
3 237 238 241
3 240 243 242
3 240 241 244
3 40 236 98
3 39 237 236
3 39 38 238
3 38 2 101
3 238 101 102
3 241 102 103
3 244 103 12
3 243 244 80
3 243 81 82
3 242 82 13
3 239 242 100
3 236 239 99
3 246 249 248
3 247 250 249
3 249 252 251
3 250 253 252
3 74 245 101
3 75 246 245
3 76 247 246
3 8 97 247
3 97 96 250
3 96 95 253
3 95 14 88
3 252 253 88
3 251 252 87
3 251 86 12
3 248 251 103
3 245 248 102
3 254 255 258
3 256 259 258
3 258 261 260
3 258 259 262
3 16 104 254
3 104 105 255
3 106 256 255
3 17 110 256
3 110 111 259
3 259 111 112
3 262 112 19
3 261 262 109
3 261 108 107
3 260 107 18
3 257 260 113
3 115 254 257
3 264 267 266
3 264 265 268
3 267 270 269
3 267 268 271
3 56 263 116
3 57 264 263
3 57 58 265
3 58 9 122
3 265 122 123
3 268 123 124
3 271 124 17
3 270 271 106
3 270 105 104
3 269 104 16
3 266 269 118
3 263 266 117
3 273 276 275
3 273 274 277
3 276 279 278
3 276 277 280
3 85 272 127
3 84 273 272
3 84 83 274
3 83 14 121
3 274 121 120
3 277 120 119
3 280 119 18
3 279 280 107
3 279 108 109
3 278 109 19
3 275 278 125
3 272 275 126
3 282 285 284
3 283 286 285
3 285 288 287
3 286 289 288
3 92 281 122
3 93 282 281
3 94 283 282
3 15 127 283
3 127 126 286
3 126 125 289
3 289 125 19
3 289 112 111
3 287 288 111
3 287 110 17
3 284 287 124
3 281 284 123
